# xmcd CD database file
#
# Track frame offsets:
#	150
#	18810
#	33382
#	52080
#
# Disc length: 887 seconds
#
# Revision: 0
# Processed by: cddbd v1.5.1PL2 Copyright (c) Steve Scherf et al.
# Submitted via: CDex 1.51
#
DISCID=29037504
DTITLE=子門真人、橘いずみ - およげ！たいやきくん
DYEAR=1992
DGENRE=アニメ
TTITLE0=およげ！たいやきくん_子門真人
TTITLE1=またね_橘いずみ
TTITLE2=およげ！たいやきくん_カラオケ
TTITLE3=またね_カラオケ
EXTD=YEAR: 1992
EXTT0=
EXTT1=
EXTT2=
EXTT3=
PLAYORDER=
